<svg width="45" height="46" xmlns="http://www.w3.org/2000/svg"><path d="M22.488.176c4.064 0 7.856 1.024 11.376 3.072a22.145 22.145 0 0 1 8.064 8.064C43.976 14.832 45 18.624 45 22.688c0 4.064-1.024 7.856-3.072 11.376a22.145 22.145 0 0 1-8.064 8.064c-3.52 2.048-7.312 3.072-11.376 3.072-4.064 0-7.84-1.024-11.328-3.072a22.145 22.145 0 0 1-8.064-8.064C1.048 30.544.024 26.752.024 22.688c0-4.064 1.024-7.856 3.072-11.376a22.145 22.145 0 0 1 8.064-8.064C14.648 1.2 18.424.176 22.488.176zm12 24c.416 0 .776-.144 1.08-.432.304-.288.456-.64.456-1.056 0-.416-.152-.768-.456-1.056a1.518 1.518 0 0 0-1.08-.432h-24c-.416 0-.768.144-1.056.432-.288.288-.432.64-.432 1.056 0 .416.144.768.432 1.056.288.288.64.432 1.056.432h24z" fill-rule="evenodd"/></svg>