<svg viewBox="0 0 349.49 28.32" xmlns="http://www.w3.org/2000/svg"><path d="M332.78 8.8H0v12.39h332.78v5.47l16.71-12.5-16.71-12.5z" fill="#ebe134" fill-rule="evenodd"/><path d="M20.43 5.4h-7.81V.01h22V5.4h-7.8v22.92h-6.39zM36.91.01h6.42v10.9h9.77V.01h6.38v28.31H53.1V16.51h-9.77v11.81h-6.42zM64.28.01h17.75V5.4H70.7v5.68h9.64v5.34H70.7v6.52h11.77v5.38H64.28zM105.41 5.4h-7.79V.01h22V5.4h-7.78v22.92h-6.38zM137.21 28.32l-5.42-10.16h-3.48v10.2h-6.42V.01h10.2c6 0 10.94 2.09 10.94 8.82a8.34 8.34 0 0 1-5 8.16l6.39 11.33zm-8.9-15.28h3.31c3.34 0 5.17-1.43 5.17-4.21s-1.83-3.74-5.17-3.74h-3.26z"/><path d="M159.68 21.59h-8.69l-1.73 6.73h-6.52L151.62.01h7.64l8.9 28.31h-6.77zm-1.31-5l-.69-2.61c-.78-2.82-1.52-6.16-2.3-9.11h-.18c-.65 3-1.43 6.29-2.21 9.11l-.69 2.61zM169.07.01h8c8.69 0 14.24 4.3 14.24 14s-5.55 14.28-13.85 14.28h-8.38zm7.65 23.15c4.77 0 8-2.34 8-9.11s-3.26-8.86-8-8.86h-1.22v17.97zM194.79.01h17.76V5.4h-11.33v5.68h9.64v5.34h-9.64v6.52h11.76v5.38h-18.19zM241.99 0a11.83 11.83 0 0 1 8.5 3.56l-3.39 3.81a6.7 6.7 0 0 0-5-2.05c-4.19 0-7.2 3.31-7.2 8.79s2.55 8.88 7.7 8.88a4.78 4.78 0 0 0 2.89-.84v-4.69h-4.52v-5h10V25a14.44 14.44 0 0 1-9.17 3.31c-7.37 0-13.23-4.82-13.23-14S234.62 0 241.99 0zM255.32.52h6.15V15.8c0 5.36 1.68 7.2 4.73 7.2s4.86-1.84 4.86-7.2V.52h5.95v14.64c0 9.17-3.73 13.15-10.81 13.15s-10.88-3.97-10.88-13.15zM286.11 18.1L277.9.52h6.57l2.47 6.28c.72 2 1.43 3.93 2.22 6h.17c.75-2.1 1.55-4 2.3-6l2.43-6.28h6.45l-8.25 17.58v9.72h-6.15zM303.33 20.16a10.85 10.85 0 0 0 6.7 2.85c2.55 0 3.81-1 3.81-2.64s-1.55-2.26-3.94-3.27l-3.51-1.5c-2.85-1.13-5.53-3.48-5.53-7.46 0-4.52 4.06-8.12 9.71-8.12a12.69 12.69 0 0 1 8.8 3.6l-3.1 3.9a8.92 8.92 0 0 0-5.7-2.18c-2.09 0-3.47.92-3.47 2.47s1.8 2.26 4.19 3.22l3.47 1.43c3.31 1.34 5.4 3.56 5.4 7.41 0 4.52-3.77 8.46-10.26 8.46a15.13 15.13 0 0 1-10.13-3.94z"/></svg>