<svg xmlns="http://www.w3.org/2000/svg" viewBox="0 0 149.1 26.8"><path d="M34.7 7.5h-3.8v-6h.9v5.2h2.8v.8zm1-5.9c0-.3.2-.6.6-.6.3 0 .6.2.6.6 0 .3-.2.5-.6.5-.3.1-.6-.2-.6-.5zm.2 1.4h.9v4.6h-.9V3zm4-.1c1 0 1.7.5 1.8 1.3h-.9c-.1-.3-.4-.5-.9-.5s-.9.2-.9.6c0 .3.2.4.7.6l.8.2c.9.2 1.3.6 1.3 1.2 0 .9-.8 1.4-1.9 1.4-1.1 0-1.8-.5-1.9-1.3h.9c.1.4.4.6 1 .6s1-.3 1-.6-.2-.4-.7-.6l-.8-.2c-.9-.2-1.3-.6-1.3-1.3 0-.9.8-1.4 1.8-1.4zm4.3-1.1V3h1v.8h-1v2.3c0 .5.2.7.6.7h.3v.8h-.5c-1 0-1.4-.4-1.4-1.2V3.7h-.7V3h.7V1.8h1zm6 4.5c-.2.8-.9 1.3-2 1.3-1.3 0-2.1-.9-2.1-2.4s.8-2.4 2.1-2.4 2 .9 2 2.3v.3H47v.1c0 .8.5 1.3 1.2 1.3.5 0 .9-.2 1.1-.6l.9.1zM47 4.8h2.3c0-.7-.5-1.2-1.1-1.2S47 4.1 47 4.8zM51.4 3h.9v.7h.1c.2-.5.7-.8 1.4-.8 1 0 1.6.6 1.6 1.7v3h-.9V4.8c0-.7-.3-1.1-1-1.1s-1.1.4-1.1 1.2v2.7h-.9L51.4 3zm7.5 2.2c0-1.5.8-2.4 2.2-2.4 1.3 0 2.2.9 2.2 2.4s-.8 2.4-2.2 2.4c-1.3 0-2.2-.9-2.2-2.4zm3.4 0c0-1-.4-1.6-1.2-1.6-.8 0-1.2.6-1.2 1.6s.4 1.6 1.2 1.6c.8 0 1.2-.6 1.2-1.6zM64.5 3h.9v.7h.1c.2-.5.7-.8 1.4-.8 1 0 1.6.6 1.6 1.7v3h-.9V4.8c0-.7-.3-1.1-1-1.1s-1.1.4-1.1 1.2v2.7h-.9L64.5 3z"/><linearGradient id="a" gradientUnits="userSpaceOnUse" x1="12.589" y1="25.065" x2="12.589" y2=".098"><stop offset="0" stop-color="#232323"/><stop offset="1" stop-color="#4e4e4e"/></linearGradient><path d="M2.1 25.1c-1.1 0-2-.9-2-2v-21c0-1.1.9-2 2-2H23c1.1 0 2 .9 2 2V23c0 1.1-.9 2-2 2H2.1z" fill="url(#a)"/><path d="M23.1.2c1.1 0 1.9.9 1.9 1.9V23c0 1.1-.9 1.9-1.9 1.9h-21C1 24.9.2 24 .2 23V2.1C.2 1 1.1.2 2.1.2h21m0-.2h-21C1 0 0 .9 0 2.1V23c0 1.2.9 2.1 2.1 2.1H23c1.2 0 2.1-.9 2.1-2.1V2.1c.1-1.2-.9-2.1-2-2.1z"/><path d="M3.2 13.1s0 .1 0 0L3 14.3l.1 1.1s0 .1.1.1c0 0 .1 0 .1-.1l.2-1.1-.3-1.2c.1.1.1 0 0 0zm.8-.6c-.1-.1-.1-.1-.1 0l-.2 1.7.2 1.7s0 .1.1.1v-.1l.2-1.7-.2-1.7zm3-1.6c-.1 0-.1.1-.1.1l-.1 3.2.1 2c0 .1.1.1.1.1.1 0 .1-.1.1-.1l.2-2-.2-3.2-.1-.1zm-1.5 1.2c-.1 0-.1.1-.1.1l-.2 2.1.2 2c0 .1.1.1.1.1.1 0 .1-.1.1-.1l.2-2-.2-2.1c0-.1-.1-.1-.1-.1zm3 4.3c.1 0 .2-.1.2-.2l.1-2-.1-4.2c0-.1-.1-.2-.2-.2s-.2.1-.2.2l-.1 4.2.1 2c.1.2.2.2.2.2zm3.2 0c.1 0 .2-.1.2-.2l.1-1.9V9.4c0-.1-.1-.2-.2-.2s-.2.1-.2.2l-.1 4.8.1 2c-.1.1 0 .2.1.2zm-1.6 0c.1 0 .2-.1.2-.2l.1-2V10c0-.1-.1-.2-.2-.2-.2 0-.3.1-.3.2l-.1 4.2.1 2c0 .1.1.2.2.2zm-3.9 0c.1 0 .1-.1.1-.1l.2-2-.2-1.9c0-.1-.1-.1-.2-.1s-.1.1-.1.1v1.9l.2 2c-.1.1 0 .1 0 .1zm-1.5-.1c.1 0 .1 0 0 0l.3-2-.2-2s0-.1-.1-.1-.1 0-.1.1l-.2 2 .2 2h.1zM11 10c-.1 0-.2.1-.2.2l-.1 4.1.1 2c0 .1.1.2.2.2s.2-.1.2-.2l.1-2-.1-4.1c0-.1-.1-.2-.2-.2zm-3.2 6.4c.1 0 .2-.1.2-.2l.2-2-.2-3.9c0-.1-.1-.2-.2-.2s-.2.1-.2.2l-.1 3.9.1 2c0 .2.1.2.2.2zm1.7-.1l.1-2-.1-4.4c0-.1-.1-.2-.2-.2s-.2.1-.2.2L9 14.3l.1 2c0 .1.1.2.2.2.1-.1.2-.1.2-.2zm10.3-4.5c-.3 0-.6.1-.9.2-.2-2.1-2-3.8-4.1-3.8-.5 0-1 .1-1.5.3-.2 0-.3.1-.3.2v7.4c0 .1.1.3.3.3h6.5c1.3.1 2.4-.9 2.5-2.2s-.9-2.4-2.2-2.5c-.2.1-.2.1-.3.1zm-7.2-3.1c-.1 0-.3.1-.3.3l-.1 5.3.1 1.9c0 .1.1.3.3.3.1 0 .3-.1.3-.3l.1-1.9-.2-5.3c0-.2-.1-.3-.2-.3z" fill="#fff"/><path d="M35.8 16.5c-1.9-.5-2.4-.7-2.4-1.5 0-.5.4-1.1 1.7-1.1 1 0 2 .5 2.7 1.2l1.8-1.7c-1.1-1.2-2.8-1.9-4.4-1.9-2.4 0-4.3 1.4-4.3 3.6 0 2.4 1.6 3.1 3.8 3.6 2.2.5 2.7.9 2.7 1.7s-.7 1.3-2.2 1.3c-1.2 0-2.3-.5-3-1.4l-1.8 1.6c1.1 1.4 2.9 2.3 4.7 2.2 3.3 0 4.8-1.6 4.8-3.9 0-2.7-2.2-3.3-4.1-3.7zM47 11.6c-3.3 0-5.3 2.6-5.3 6.3s2 6.3 5.3 6.3 5.3-2.6 5.3-6.3-2-6.3-5.3-6.3zm0 10.1c-2 0-2.8-1.7-2.8-3.9S45 14 47 14c2 0 2.8 1.7 2.8 3.9s-.9 3.8-2.8 3.8zm15.1-3.1c0 1.9-1 3.1-2.5 3.1s-2.5-1.2-2.5-3.2v-6.8h-2.4v6.8c0 3.5 2 5.5 4.9 5.5 3.1 0 4.9-2 4.9-5.6v-6.8h-2.4v7zm13-1.7v2.7c-.2-.3-.6-.9-.8-1.4L70 11.8h-2.4V24H70v-8.1c.2.3.6.9.8 1.4l4.5 6.7h2.2V11.8H75l.1 5.1zm9.3-5.1h-3.8V24h3.6c3.1 0 6.2-1.8 6.2-6.1 0-4.5-2.5-6.1-6-6.1zm-.2 9.8H83v-7.4h1.3c2.6 0 3.6 1.2 3.6 3.7.2 1.9-1.1 3.5-3 3.7h-.7zM97.9 14c.9-.1 1.8.5 2.2 1.3l2.3-1.1c-.8-1.7-2.6-2.8-4.5-2.7-3.2 0-5.4 2.6-5.4 6.3s2.2 6.3 5.3 6.3c1.9.1 3.7-.9 4.5-2.7l-2.1-1.2c-.4 1-1.3 1.6-2.4 1.5-1.8 0-2.9-1.7-2.9-3.9s1.2-3.8 3-3.8zm9.1-2.2h-2.4V24h7.3v-2.4H107v-9.8zm11.3-.2c-3.3 0-5.3 2.6-5.3 6.3s2 6.3 5.3 6.3 5.3-2.6 5.3-6.3-2-6.3-5.3-6.3zm0 10.1c-2 0-2.8-1.7-2.8-3.9s.8-3.9 2.8-3.9 2.8 1.7 2.8 3.9-.9 3.9-2.8 3.9zm15.1-3.1c0 1.9-.9 3.1-2.5 3.1s-2.5-1.2-2.5-3.2v-6.8H126v6.8c0 3.5 2 5.5 4.9 5.5s4.9-2 4.9-5.6v-6.8h-2.4v7zm9.3-6.8h-3.8V24h3.6c3.1 0 6.2-1.8 6.2-6.1 0-4.5-2.6-6.1-6-6.1zm-.2 9.8h-1.2v-7.4h1.3c2.6 0 3.6 1.2 3.6 3.7.2 1.8-1.1 3.5-2.9 3.7h-.8z" fill="#232323"/></svg>