<svg data-name="Layer 1" xmlns="http://www.w3.org/2000/svg" viewBox="0 0 1142.01 3140.52"><defs><clipPath id="a" transform="translate(-148.68 -89.31)"><path fill="none" clip-rule="evenodd" d="M550.68 216.31h731.86v39.66H550.68v19.71l-53.48-40 53.48-40v20.63z"/></clipPath><clipPath id="b" transform="translate(-148.68 -89.31)"><path fill="none" d="M173.84 88.42h1142.01v3140.52H173.84z"/></clipPath><clipPath id="c" transform="translate(-148.68 -89.31)"><path fill="#fff" clip-rule="evenodd" d="M669.27 469.12h213.2v39.65h-213.2v19.71l-53.48-40 53.48-40v20.64z"/></clipPath></defs><path d="M72.4 117.12H42.05V96.21h85.27v20.91H97.18v89H72.4zm63.98-20.91h25v42.32h37.94V96.21h24.79v109.93h-24.79v-45.86h-38v45.86h-25zm106.29 0h69v20.91h-44v22.09h37.43v20.74h-37.47v25.29h45.69v20.9h-70.65zm16.76 142.82h-30.35v-20.91h85.32v20.91h-30.18v89h-24.79zm123.5 89.02l-21.07-39.62h-13.49v39.62h-24.95V218.12h39.62c23.27 0 42.49 8.1 42.49 34.23 0 16.19-7.93 26.47-19.56 31.7l24.78 44zm-34.56-59.36h12.65c13 0 20.06-5.56 20.06-16.35s-7.08-14.5-20.06-14.5h-12.65z"/><path d="M470.17 301.92h-33.72l-6.74 26.13h-25.29l34.56-109.93h29.68l34.56 109.93h-26.3zm-5.05-19.39l-2.7-10.12c-3-11-5.9-23.94-8.94-35.4h-.67c-2.53 11.63-5.57 24.44-8.6 35.4l-2.7 10.12zm41.56-64.41h31c33.72 0 55.3 16.69 55.3 54.46s-21.58 55.47-53.78 55.47h-32.52zm29.64 89.87c18.55 0 31.19-9.11 31.19-35.41s-12.61-34.39-31.19-34.39h-4.72v69.8zm70.24-89.87h69v20.91h-44v22.09H669v20.74h-37.49v25.29h45.7v20.9h-70.65zM145.85 338.17a45.86 45.86 0 0 1 33 13.82l-13.17 14.8c-5.37-4.88-10.41-8-19.52-8-16.26 0-28 12.85-28 34.15 0 21.8 9.92 34.48 29.93 34.48 4.22 0 8.62-1.14 11.22-3.25v-18.19h-17.53v-19.51h38.87v48.79c-7.64 6.66-20.81 12.84-35.61 12.84-28.62 0-51.39-18.7-51.39-54.31 0-35.1 23.42-55.62 52.2-55.62zm51.77 2h23.9v59.36c0 20.81 6.51 28 18.38 28s18.86-7.16 18.86-28v-59.36h23.09v56.92c0 35.61-14.47 51.06-41.95 51.06s-42.28-15.46-42.28-51.06zm119.58 68.3l-31.88-68.3h25.53l9.59 24.39c2.77 8 5.53 15.29 8.62 23.42h.65c2.93-8.13 6-15.45 9-23.42l9.43-24.39h25l-32 68.3v37.73H317.2zm66.89 7.92c7.48 6.51 17.24 11.06 26 11.06 9.92 0 14.8-3.9 14.8-10.25 0-6.66-6-8.78-15.29-12.68l-13.64-5.83c-11-4.4-21.46-13.5-21.46-29 0-17.56 15.77-31.55 37.73-31.55a49.09 49.09 0 0 1 34.15 14l-12 15.12c-7-5.37-13.66-8.46-22.11-8.46-8.14 0-13.5 3.58-13.5 9.6 0 6.5 7 8.78 16.26 12.52l13.5 5.53c12.85 5.2 21 13.82 21 28.78 0 17.57-14.64 32.85-39.85 32.85a58.77 58.77 0 0 1-39.36-15.26z"/><g clip-path="url(#a)"><g clip-path="url(#b)"><path fill="#fff" d="M344.55 102.4h793.27v87.93H344.55z"/></g></g><path fill="#fff" fill-rule="evenodd" d="M520.59 379.81h213.2v39.65h-213.2v19.71l-53.48-40 53.48-40v20.64z"/><g clip-path="url(#c)"><path fill="#fff" d="M0 0h1142.01v3140.52H0z"/></g><path fill="#fff" fill-rule="evenodd" d="M167.76 260.76H11.66v39.65h156.1v19.71l53.48-40-53.48-40v20.64z"/></svg>